<svg xmlns="http://www.w3.org/2000/svg" xmlns:xlink="http://www.w3.org/1999/xlink" viewBox="0 0 100 125" version="1.1" x="0px" y="0px"><title>16</title><desc>Created with Sketch.</desc><g stroke="none" stroke-width="1" fill="none" fill-rule="evenodd"><g fill="#000000"><path d="M71.5067843,31.0197065 L59.0603137,58.2831115 C58.963451,58.4950489 58.8305098,58.6842857 58.670902,58.8455382 C58.666,58.8508219 58.6616863,58.8564971 58.6565882,58.8615851 C58.6548235,58.8633464 58.6526667,58.8649119 58.651098,58.8666732 C58.4873725,59.0298826 58.2942353,59.165499 58.0779608,59.2639335 L30.760902,71.686047 C30.5001176,71.804638 30.2230588,71.8621722 29.948549,71.8621722 C29.4389412,71.8621722 28.9373725,71.6639335 28.5614902,71.2889824 C27.9830588,70.711683 27.8244314,69.8365362 28.1636471,69.0938748 L40.6101176,41.830274 C40.7093333,41.6130528 40.8461961,41.4191194 41.0112941,41.2551272 C41.0118824,41.2543444 41.0124706,41.2535616 41.0130588,41.2529746 C41.0189412,41.2471037 41.0254118,41.2422114 41.0312941,41.2365362 C41.1924706,41.0780235 41.381098,40.9457339 41.5926667,40.8494521 L68.9095294,28.4275342 C69.6538431,28.0889824 70.5305098,28.2472994 71.1091373,28.8245988 C71.6873725,29.4018982 71.846,30.2768493 71.5067843,31.0197065 L71.5067843,31.0197065 Z M88.1371765,52.0056164 C87.0544314,52.0056164 86.1763922,51.1294912 86.1763922,50.0486693 C86.1763922,48.9680431 87.0544314,48.0917221 88.1371765,48.0917221 L99.9177647,48.0917221 C99.4322745,35.4999413 94.2926667,23.7312524 85.3146275,14.7705871 C76.3344314,5.80796477 64.5393333,0.678219178 51.9193333,0.195636008 L51.9193333,11.9445597 C51.9193333,13.0253816 51.0412941,13.9015068 49.958549,13.9015068 C48.8756078,13.9015068 47.9977647,13.0253816 47.9977647,11.9445597 L47.9977647,0.195831703 C35.3781569,0.678414873 23.5836471,5.80835616 14.6038431,14.7705871 C5.62560784,23.7312524 0.486,35.4999413 0.000509803922,48.0917221 L11.7797255,48.0917221 C12.8624706,48.0917221 13.7405098,48.9680431 13.7405098,50.0486693 C13.7405098,51.1294912 12.8624706,52.0056164 11.7797255,52.0056164 L-7.84313725e-05,52.0056164 C0.481686275,64.6038552 5.62188235,76.3786106 14.6038431,85.3429941 C23.5836471,94.305225 35.3781569,99.4351663 47.9977647,99.9177495 L47.9977647,88.1527789 C47.9977647,87.0719569 48.8756078,86.1958317 49.958549,86.1958317 C51.0412941,86.1958317 51.9193333,87.0719569 51.9193333,88.1527789 L51.9193333,99.9177495 C64.5393333,99.435362 76.3344314,94.3056164 85.3146275,85.3429941 C94.2965882,76.3786106 99.4365882,64.6038552 99.9181569,52.0056164 L88.1371765,52.0056164 Z M43.0076275,46.0182387 L33.9060588,65.954638 L53.8817451,56.8710763 L48.4488039,51.4405479 L43.0076275,46.0182387 Z"/></g></g><text x="0" y="115" fill="#000000" font-size="5px" font-weight="bold" font-family="'Helvetica Neue', Helvetica, Arial-Unicode, Arial, Sans-serif">Created by AomAm</text><text x="0" y="120" fill="#000000" font-size="5px" font-weight="bold" font-family="'Helvetica Neue', Helvetica, Arial-Unicode, Arial, Sans-serif">from the Noun Project</text></svg>