<svg xmlns="http://www.w3.org/2000/svg" viewBox="0 0 100 125" x="0px" y="0px"><title>Icona</title><g data-name="Layer 1"><path d="M57.55884,79.56321a39.94673,39.94673,0,0,1-3.91424,1.45531A2.49172,2.49172,0,1,0,55.132,85.7748a44.93254,44.93254,0,0,0,4.40681-1.63734,2.4922,2.4922,0,1,0-1.98-4.57425Z"/><path d="M81.93308,18.29374A44.70378,44.70378,0,0,0,50.16062,4.99981c-.05549,0-.109-.00049-.16451-.00049A45.00058,45.00058,0,0,0,18.06692,81.70626,44.70378,44.70378,0,0,0,49.83938,95.00019c.05549,0,.109.00049.16451.00049A45.00058,45.00058,0,0,0,81.93308,18.29374Zm-3.739,60.10279A39.74515,39.74515,0,0,1,50.00389,90.01661c-.04867,0-.09831-.00048-.147-.00048A40.01619,40.01619,0,0,1,21.806,21.60347,39.7472,39.7472,0,0,1,49.99611,9.98339c.04867,0,.09831.00048.147.00048a40.01619,40.01619,0,0,1,28.051,68.41266Z"/><path d="M70.88149,35.77594a2.49112,2.49112,0,0,0-3.52389,0L44.19531,58.93774,32.6424,47.38482a2.49177,2.49177,0,0,0-3.52389,3.5239L42.43337,64.22406a2.49112,2.49112,0,0,0,3.52389,0L70.88149,39.29983A2.49112,2.49112,0,0,0,70.88149,35.77594Z"/><path d="M81.21662,58.672a2.49155,2.49155,0,0,0-3.31752,1.191A40.15079,40.15079,0,0,1,63.93592,76.08215a2.49239,2.49239,0,1,0,2.77628,4.14009A45.15556,45.15556,0,0,0,82.40812,61.989,2.493,2.493,0,0,0,81.21662,58.672Z"/></g><text x="0" y="115" fill="#000000" font-size="5px" font-weight="bold" font-family="'Helvetica Neue', Helvetica, Arial-Unicode, Arial, Sans-serif">Created by Eleanor Bell</text><text x="0" y="120" fill="#000000" font-size="5px" font-weight="bold" font-family="'Helvetica Neue', Helvetica, Arial-Unicode, Arial, Sans-serif">from the Noun Project</text></svg>